<!--?xml version="1.0" encoding="utf-8"?-->
<!-- Generator: Adobe Illustrator 21.0.0, SVG Export Plug-In . SVG Version: 6.00 Build 0)  -->
<svg version="1.1" id="图层_1" xmlns="http://www.w3.org/2000/svg" xmlns:xlink="http://www.w3.org/1999/xlink" x="0px" y="0px" viewBox="0 0 48 48" style="width: 36px; height: 36px;" xml:space="preserve" width="36" height="36">
<path d="M27.1,37.6c-2,0.6-4.2,0.6-6.3,0c-0.3-0.1-0.5,0.1-0.6,0.3c-0.1,0.3,0.1,0.5,0.3,0.6c1.1,0.3,2.2,0.5,3.4,0.5
	s2.3-0.2,3.4-0.5c0.3-0.1,0.4-0.4,0.3-0.6C27.7,37.7,27.4,37.5,27.1,37.6z M19.2,18.5c0.2,0.3,0.5,0.5,0.9,0.5H28
	c0.4,0,0.7-0.2,0.9-0.5l3.9-6.5c0.2-0.3,0.2-0.7,0-1l-3.9-6.5C28.6,4.2,28.3,4,28,4H20c-0.4,0-0.7,0.2-0.9,0.5L15.2,11
	c-0.2,0.3-0.2,0.7,0,1L19.2,18.5z M20.6,6h6.8l3.3,5.5L27.4,17h-6.8l-3.3-5.5L20.6,6z M40.3,23.1c0,0.2,0.3,0.4,0.5,0.4
	c0,0,0.1,0,0.1,0c0.3-0.1,0.4-0.3,0.4-0.6c-0.8-3.7-2.8-7.1-5.7-9.6c-0.2-0.2-0.5-0.2-0.7,0c-0.2,0.2-0.2,0.5,0,0.7
	C37.6,16.4,39.5,19.6,40.3,23.1z M31.8,18.3c-0.2,0.2-0.2,0.5,0,0.7c0.3,0.3,0.6,0.6,0.8,0.8c0.9,1,1.6,2.1,2.1,3.3
	c0.1,0.2,0.3,0.3,0.5,0.3c0.1,0,0.1,0,0.2,0c0.3-0.1,0.4-0.4,0.3-0.7c-0.5-1.3-1.3-2.5-2.3-3.6c-0.3-0.3-0.6-0.6-0.9-0.9
	C32.3,18.1,32,18.1,31.8,18.3z M45.9,33l-3.9-6.5c-0.2-0.3-0.5-0.5-0.9-0.5h-7.9c-0.4,0-0.7,0.2-0.9,0.5L28.3,33
	c-0.2,0.3-0.2,0.7,0,1l3.9,6.5c0.2,0.3,0.5,0.5,0.9,0.5h7.9c0.4,0,0.7-0.2,0.9-0.5l3.9-6.5C46,33.7,46,33.3,45.9,33z M40.5,39h-6.8
	l-3.3-5.5l3.3-5.5h6.8l3.3,5.5L40.5,39z M19.7,33l-3.9-6.5c-0.2-0.3-0.5-0.5-0.9-0.5H6.9c-0.4,0-0.7,0.2-0.9,0.5L2.1,33
	c-0.2,0.3-0.2,0.7,0,1l3.9,6.5C6.3,40.8,6.6,41,6.9,41h7.9c0.4,0,0.7-0.2,0.9-0.5l3.9-6.5C19.8,33.7,19.8,33.3,19.7,33z M14.3,39
	H7.5l-3.3-5.5L7.5,28h6.8l3.3,5.5L14.3,39z M29.8,42c-3.7,1.4-7.8,1.4-11.5,0c-0.3-0.1-0.6,0-0.6,0.3c-0.1,0.3,0,0.5,0.3,0.6
	c2,0.7,4,1.1,6.1,1.1s4.2-0.4,6.1-1.1c0.3-0.1,0.4-0.4,0.3-0.6C30.3,42,30,41.9,29.8,42z M12.6,23.5c0.1,0,0.1,0,0.2,0
	c0.2,0,0.4-0.1,0.5-0.3c0.5-1.2,1.2-2.3,2.1-3.3c0.2-0.3,0.5-0.5,0.8-0.8c0.2-0.2,0.2-0.5,0-0.7c-0.2-0.2-0.5-0.2-0.7,0
	c-0.3,0.3-0.6,0.6-0.8,0.9c-1,1.1-1.7,2.3-2.3,3.6C12.2,23.1,12.3,23.4,12.6,23.5z M7.1,23.5c0,0,0.1,0,0.1,0c0.2,0,0.4-0.2,0.5-0.4
	c0.7-3.5,2.6-6.7,5.3-9c0.2-0.2,0.2-0.5,0-0.7c-0.2-0.2-0.5-0.2-0.7,0c-2.9,2.5-4.9,5.9-5.7,9.6C6.7,23.2,6.9,23.4,7.1,23.5z"></path>
</svg>
