<?xml version="1.0" encoding="UTF-8"?>
<svg width="32px" height="32px" viewBox="0 0 32 32" version="1.1" xmlns="http://www.w3.org/2000/svg" xmlns:xlink="http://www.w3.org/1999/xlink">
    <!-- Generator: Sketch 63.1 (92452) - https://sketch.com -->
    <title>复制</title>
    <desc>Created with Sketch.</desc>
    <g id="页面-2" stroke="none" stroke-width="1" fill="none" fill-rule="evenodd">
        <g id="开发镜像获取页面" transform="translate(-1343.000000, -813.000000)" fill="#565656" fill-rule="nonzero">
            <g id="复制" transform="translate(1343.000000, 813.000000)">
                <path d="M22,8 C23.1045695,8 24,8.8954305 24,10 L24,10 L24,28 C24,29.1045695 23.1045695,30 22,30 L22,30 L4,30 C2.8954305,30 2,29.1045695 2,28 L2,28 L2,10 C2,8.8954305 2.8954305,8 4,8 L4,8 Z M22,10 L4,10 L4,28 L22,28 L22,10 Z M28,2 L28.1492623,2.00548574 C29.1841222,2.08183488 30,2.9456382 30,4 L30,4 L30,18 L28,18 L28,4 L14,4 L14,2 L28,2 Z" id="形状结合"></path>
            </g>
        </g>
    </g>
</svg>