<!--?xml version="1.0" encoding="utf-8"?-->
<!-- Generator: Adobe Illustrator 21.0.0, SVG Export Plug-In . SVG Version: 6.00 Build 0)  -->
<svg version="1.1" id="图层_1" xmlns="http://www.w3.org/2000/svg" xmlns:xlink="http://www.w3.org/1999/xlink" x="0px" y="0px" viewBox="0 0 41 41" style="width: 36px; height: 36px;" xml:space="preserve" width="36" height="36">
<style type="text/css">
	.stproduct_165_0{fill:#333333;}
</style>
<g id="图标">
	<g id="服务图标-P2P-内容分发网络" transform="translate(-138.000000, -95.000000)">
		<path id="Combined-Shape" class="stproduct_165_0" d="M166.5,117.3l4.6,4.6c0.5-0.5,1.2-0.9,2-1.1c2.4-0.6,4.9,0.8,5.5,3.2s-0.8,4.9-3.2,5.5
			c-2.4,0.6-4.9-0.8-5.5-3.2c-0.3-1.3-0.1-2.6,0.6-3.6l-4.8-4.8c-1.9,1.3-4.2,2.1-6.7,2.1v7c2.2,0.2,4,2.2,4,4.5
			c0,2.5-2,4.5-4.5,4.5c-2.5,0-4.5-2-4.5-4.5c0-2.3,1.8-4.2,4-4.5V120c-2.5-0.1-4.7-1-6.6-2.4l-4.8,5.1c0.6,1,0.8,2.2,0.5,3.4
			c-0.6,2.4-3,3.9-5.4,3.4s-3.9-3-3.4-5.4c0.6-2.4,3-3.9,5.4-3.4c0.9,0.2,1.6,0.6,2.2,1.2l4.6-5c-2.7-2.3-4.4-5.7-4.4-9.5
			c0-6.9,5.6-12.5,12.5-12.5s12.5,5.6,12.5,12.5C171.3,111.5,169.4,115,166.5,117.3z M142.2,127.5c1.3,0.3,2.7-0.5,3-1.9
			s-0.5-2.7-1.9-3c-1.3-0.3-2.7,0.5-3,1.9S140.9,127.2,142.2,127.5z M158.5,135c1.9,0,3.5-1.6,3.5-3.5s-1.6-3.5-3.5-3.5
			c-1.9,0-3.5,1.6-3.5,3.5S156.6,135,158.5,135z M158.8,118c5.8,0,10.5-4.7,10.5-10.5S164.6,97,158.8,97s-10.5,4.7-10.5,10.5
			S153,118,158.8,118z M174.9,127.5c1.3-0.4,2.1-1.7,1.8-3.1s-1.7-2.1-3.1-1.8c-1.3,0.4-2.1,1.7-1.8,3.1
			C172.2,127.1,173.5,127.9,174.9,127.5z"></path>
	</g>
</g>
</svg>
