<?xml version="1.0" encoding="UTF-8"?>
<svg width="150px" height="46px" viewBox="0 0 150 46" version="1.1" xmlns="http://www.w3.org/2000/svg" xmlns:xlink="http://www.w3.org/1999/xlink">
    <!-- Generator: Sketch 63.1 (92452) - https://sketch.com -->
    <title>编组</title>
    <desc>Created with Sketch.</desc>
    <g id="页面-1" stroke="none" stroke-width="1" fill="none" fill-rule="evenodd">
        <g id="画板备份-10" transform="translate(0.000000, -7.000000)" fill="#244E9E" fill-rule="nonzero">
            <g id="编组" transform="translate(0.006418, 7.009779)">
                <path d="M7.5448299,22.9552116 L22.944666,38.3550478 L15.3998361,45.8998777 L-2.73558953e-13,30.5000415 L7.5448299,22.9552116 Z M38.3416189,22.9497391 L45.8864488,30.494569 L30.4866126,45.8944051 L22.9417827,38.3495752 L38.3416189,22.9497391 Z M19.7257208,16.550221 L21.7075319,16.561504 L26.673582,28.510221 L24.1732737,28.510221 L20.7511928,20.4879945 L17.3867227,28.510221 L14.713582,28.510221 L19.7257208,16.550221 Z M26.0833666,16.550221 C26.0932743,16.561504 30.3040436,28.1153153 30.353582,28.510221 L28.2729666,28.510221 L23.913582,16.550221 L26.0833666,16.550221 Z M15.4031972,0.00572154639 L22.9480271,7.55055144 L7.54819098,22.9503876 L0.00336108247,15.4055577 L15.4031972,0.00572154639 Z M30.4892861,-8.8817842e-15 L45.8891222,15.3998361 L38.3442923,22.944666 L22.9444562,7.5448299 L30.4892861,-8.8817842e-15 Z" id="形状结合"></path>
                <path d="M64.227957,30.0097522 L67.6459258,21.6796741 C68.0105091,20.7747262 68.3848581,19.6744657 68.7689727,18.3788928 C68.6778268,19.7200387 68.6322539,20.8626168 68.6322539,21.8066272 L68.6322539,21.8066272 L68.6322539,29.990221 L71.0443633,29.990221 L71.0443633,15.849596 L67.7728789,15.849596 L64.4135039,24.1015491 C64.0163685,25.084622 63.6843372,26.0481637 63.4174102,26.9921741 C63.2286081,26.1913928 62.9095977,25.2278512 62.4603789,24.1015491 L62.4603789,24.1015491 L59.1986602,15.849596 L55.8099883,15.849596 L55.8099883,29.990221 L58.0365508,29.990221 L58.0365508,21.8066272 C58.0365508,20.4394397 58.0007435,19.2968616 57.9291289,18.3788928 C58.2806914,19.5247262 58.6094674,20.4882678 58.915457,21.2695178 L58.915457,21.2695178 L62.3724883,30.0097522 L64.227957,30.0097522 Z M78.9408477,30.1855335 C79.930431,30.1855335 80.8109648,29.9739449 81.5824492,29.5507678 C82.3539336,29.1275907 82.9594023,28.5074736 83.3988555,27.6904163 C83.8383086,26.873359 84.0580352,25.8919137 84.0580352,24.7460803 C84.0580352,23.6197782 83.8464466,22.6432157 83.4232695,21.8163928 C83.0000924,20.9895699 82.4108997,20.3564319 81.6556914,19.9169788 C80.9004831,19.4775256 80.0280872,19.2577991 79.0385039,19.2577991 C78.0358997,19.2577991 77.1488555,19.4807808 76.3773711,19.9267444 C75.6058867,20.3727079 75.0053008,21.0172392 74.5756133,21.8603381 C74.1459258,22.7034371 73.931082,23.6979032 73.931082,24.8437366 C73.931082,25.9830595 74.1459258,26.9547392 74.5756133,27.7587756 C75.0053008,28.5628121 75.5977487,29.1682808 76.352957,29.5751819 C77.1081654,29.9820829 77.9707956,30.1855335 78.9408477,30.1855335 Z M79.087332,28.349596 C78.2149362,28.349596 77.5476185,28.0387236 77.0853789,27.4169788 C76.6231393,26.795234 76.3920195,25.9179553 76.3920195,24.7851428 C76.3920195,23.6458199 76.6052357,22.7457548 77.031668,22.0849475 C77.4581003,21.4241402 78.1042591,21.0937366 78.9701445,21.0937366 C79.8295195,21.0937366 80.4789336,21.4257678 80.9183867,22.0898303 C81.3578398,22.7538928 81.5775664,23.6751168 81.5775664,24.8535022 C81.5775664,25.9798043 81.3708607,26.8440621 80.9574492,27.4462756 C80.5440378,28.0484892 79.9206654,28.349596 79.087332,28.349596 Z M89.9037383,30.1855335 C90.5808216,30.1855335 91.1781523,30.0520699 91.6957305,29.7851428 C92.2133086,29.5182157 92.680431,29.1438668 93.0970977,28.662096 C93.1426706,29.1373564 93.2077747,29.5800647 93.2924102,29.990221 L93.2924102,29.990221 L95.5482695,29.990221 C95.4896758,29.052721 95.4603789,28.1770699 95.4603789,27.3632678 L95.4603789,27.3632678 L95.4603789,14.8144397 L93.0580352,15.0097522 L93.0580352,19.5800647 C92.7715768,19.4889189 92.4411732,19.4124215 92.0668242,19.3505725 C91.6924753,19.2887236 91.3295195,19.2577991 90.977957,19.2577991 C89.9102487,19.2577991 88.9971628,19.4938017 88.2386992,19.9658069 C87.4802357,20.4378121 86.9040638,21.1116402 86.5101836,21.9872913 C86.1163034,22.8629423 85.9193633,23.8997262 85.9193633,25.0976428 C85.9193633,26.2760282 86.1000273,27.2444527 86.4613555,28.0029163 C86.8226836,28.7613798 87.3011992,29.3147652 87.8969023,29.6630725 C88.4926055,30.0113798 89.1615508,30.1855335 89.9037383,30.1855335 Z M90.5287383,28.2910022 C89.8972279,28.2910022 89.3812773,28.0322131 88.9808867,27.514635 C88.5804961,26.9970569 88.3803008,26.1751168 88.3803008,25.0488147 C88.3803008,23.7337105 88.6276966,22.732734 89.1224883,22.045885 C89.6172799,21.3590361 90.2943633,21.0156116 91.1537383,21.0156116 C91.4597279,21.0156116 91.7803659,21.0481637 92.1156523,21.1132678 C92.4509388,21.178372 92.7650664,21.2630074 93.0580352,21.3671741 L93.0580352,21.3671741 L93.0580352,27.0410022 C92.8041289,27.366523 92.446056,27.6562366 91.9838164,27.9101428 C91.5215768,28.1640491 91.0365508,28.2910022 90.5287383,28.2910022 Z M103.220145,30.1855335 C104.691499,30.1855335 106.016368,29.8990751 107.194754,29.3261585 L107.194754,29.3261585 L106.66741,27.6757678 C106.19215,27.8775907 105.69573,28.0387236 105.178152,28.1591663 C104.660574,28.279609 104.154389,28.3398303 103.659598,28.3398303 C101.66741,28.3398303 100.615978,27.2363147 100.505301,25.0292835 L100.505301,25.0292835 L107.399832,25.0292835 L107.399832,24.3847522 C107.399832,23.4472522 107.238699,22.5911324 106.916434,21.8163928 C106.594168,21.0416532 106.099376,20.4215361 105.432059,19.9560413 C104.764741,19.4905465 103.933035,19.2577991 102.936941,19.2577991 C101.97991,19.2577991 101.135184,19.4791532 100.402762,19.9218616 C99.6703398,20.3645699 99.0990508,21.005846 98.6888945,21.8456897 C98.2787383,22.6855335 98.0736602,23.6881376 98.0736602,24.8535022 C98.0736602,25.9732939 98.2673451,26.9303251 98.6547148,27.724596 C99.0420846,28.5188668 99.6198841,29.1275907 100.388113,29.5507678 C101.156342,29.9739449 102.100353,30.1855335 103.220145,30.1855335 Z M105.046316,23.4960803 L100.57366,23.4960803 C100.697358,22.662747 100.962658,22.0344918 101.369559,21.6113147 C101.77646,21.1881376 102.2859,20.9765491 102.897879,20.9765491 C103.529389,20.9765491 104.033947,21.18651 104.411551,21.6064319 C104.789155,22.0263538 105.000743,22.6562366 105.046316,23.4960803 L105.046316,23.4960803 Z M112.425223,30.1855335 C112.718191,30.1855335 113.029064,30.1578642 113.35784,30.1025256 C113.686616,30.0471871 113.964936,29.9739449 114.192801,29.8827991 L114.192801,29.8827991 L113.909598,28.1542835 C113.63616,28.225898 113.424572,28.2617053 113.274832,28.2617053 C112.942801,28.2617053 112.700288,28.1689319 112.547293,27.983385 C112.394298,27.7978381 112.317801,27.4804553 112.317801,27.0312366 L112.317801,27.0312366 L112.317801,14.8144397 L109.915457,15.0097522 L109.915457,27.4609241 C109.915457,29.2773303 110.752046,30.1855335 112.425223,30.1855335 Z M121.132254,29.990221 C122.193452,29.990221 123.103283,29.8225777 123.861746,29.4872913 C124.62021,29.1520048 125.196382,28.6832548 125.590262,28.0810413 C125.984142,27.4788277 126.181082,26.7838407 126.181082,25.9960803 C126.181082,25.318997 126.036225,24.7281767 125.746512,24.2236194 C125.456798,23.7190621 125.059663,23.3121611 124.555105,23.0029163 C124.050548,22.6936715 123.476004,22.490221 122.831473,22.3925647 C123.606212,22.1647001 124.23284,21.7691923 124.711355,21.2060413 C125.189871,20.6428902 125.429129,19.9413928 125.429129,19.1015491 C125.429129,18.0924345 125.05478,17.2981637 124.306082,16.7187366 C123.557384,16.1393095 122.434337,15.849596 120.936941,15.849596 L120.936941,15.849596 L116.522879,15.849596 L116.522879,29.990221 L121.132254,29.990221 Z M120.429129,21.630846 L118.905691,21.630846 L118.905691,17.6562366 L120.526785,17.6562366 C121.321056,17.6562366 121.928152,17.7994657 122.348074,18.0859241 C122.767996,18.3723824 122.977957,18.8053251 122.977957,19.3847522 C122.977957,19.7949085 122.87379,20.170885 122.665457,20.5126819 C122.457124,20.8544788 122.159272,21.1262887 121.771902,21.3281116 C121.384533,21.5299345 120.936941,21.630846 120.429129,21.630846 L120.429129,21.630846 Z M120.741629,28.1835803 L118.905691,28.1835803 L118.905691,23.4374866 L120.546316,23.4374866 C121.581473,23.4374866 122.374116,23.6425647 122.924246,24.052721 C123.474376,24.4628772 123.749441,25.0618355 123.749441,25.849596 C123.749441,26.5917835 123.500418,27.1663277 123.002371,27.5732288 C122.504324,27.9801298 121.750743,28.1835803 120.741629,28.1835803 L120.741629,28.1835803 Z M133.159598,30.1855335 C134.149181,30.1855335 135.029715,29.9739449 135.801199,29.5507678 C136.572684,29.1275907 137.178152,28.5074736 137.617605,27.6904163 C138.057059,26.873359 138.276785,25.8919137 138.276785,24.7460803 C138.276785,23.6197782 138.065197,22.6432157 137.64202,21.8163928 C137.218842,20.9895699 136.62965,20.3564319 135.874441,19.9169788 C135.119233,19.4775256 134.246837,19.2577991 133.257254,19.2577991 C132.25465,19.2577991 131.367605,19.4807808 130.596121,19.9267444 C129.824637,20.3727079 129.224051,21.0172392 128.794363,21.8603381 C128.364676,22.7034371 128.149832,23.6979032 128.149832,24.8437366 C128.149832,25.9830595 128.364676,26.9547392 128.794363,27.7587756 C129.224051,28.5628121 129.816499,29.1682808 130.571707,29.5751819 C131.326915,29.9820829 132.189546,30.1855335 133.159598,30.1855335 Z M133.306082,28.349596 C132.433686,28.349596 131.766368,28.0387236 131.304129,27.4169788 C130.841889,26.795234 130.61077,25.9179553 130.61077,24.7851428 C130.61077,23.6458199 130.823986,22.7457548 131.250418,22.0849475 C131.67685,21.4241402 132.323009,21.0937366 133.188895,21.0937366 C134.04827,21.0937366 134.697684,21.4257678 135.137137,22.0898303 C135.57659,22.7538928 135.796316,23.6751168 135.796316,24.8535022 C135.796316,25.9798043 135.589611,26.8440621 135.176199,27.4462756 C134.762788,28.0484892 134.139415,28.349596 133.306082,28.349596 Z M141.593191,29.990221 L144.044363,26.1132678 L146.554129,29.990221 L149.171316,29.990221 L145.470145,24.5605335 L148.790457,19.4531116 L146.280691,19.4531116 L144.190848,22.958971 L141.964285,19.4531116 L139.327566,19.4531116 L142.804129,24.5019397 L139.083426,29.990221 L141.593191,29.990221 Z" id="ModelBox" stroke="#244E9E" stroke-width="0.2" stroke-linejoin="round"></path>
            </g>
        </g>
    </g>
</svg>