<!--?xml version="1.0" encoding="utf-8"?-->
<!-- Generator: Adobe Illustrator 21.0.0, SVG Export Plug-In . SVG Version: 6.00 Build 0)  -->
<svg version="1.1" id="图层_1" xmlns="http://www.w3.org/2000/svg" xmlns:xlink="http://www.w3.org/1999/xlink" x="0px" y="0px" viewBox="0 0 48 48" style="width: 36px; height: 36px;" xml:space="preserve" width="36" height="36">
<style type="text/css">
	.stproduct_14_0{fill:#060001;}
	.stproduct_14_1{fill:#040000;}
	.stproduct_14_2{fill:none;stroke:#000000;stroke-miterlimit:10;}
	.stproduct_14_3{fill:#221815;}
	.stproduct_14_4{fill:#080102;}
	.stproduct_14_5{fill:none;stroke:#000000;stroke-width:2;stroke-linecap:round;stroke-linejoin:round;stroke-miterlimit:10;}
	.stproduct_14_6{fill:#070001;}
</style>
<path d="M42,29h-5v-2.5c0-1.4-1.1-2.5-2.5-2.5h-10v-5H31c2.2,0,4-1.8,4-4V6c0-2.2-1.8-4-4-4H17c-2.2,0-4,1.8-4,4v9c0,2.2,1.8,4,4,4
	h6.5v5h-10c-1.4,0-2.5,1.1-2.5,2.5V29H6c-2.2,0-4,1.8-4,4v9c0,2.2,1.8,4,4,4h12c2.2,0,4-1.8,4-4v-9c0-2.2-1.8-4-4-4h-6v-2.5
	c0-0.8,0.7-1.5,1.5-1.5h21c0.8,0,1.5,0.7,1.5,1.5V29h-6c-2.2,0-4,1.8-4,4v9c0,2.2,1.8,4,4,4h12c2.2,0,4-1.8,4-4v-9
	C46,30.8,44.2,29,42,29z M18,31c1.1,0,2,0.9,2,2v9c0,1.1-0.9,2-2,2H6c-1.1,0-2-0.9-2-2v-9c0-1.1,0.9-2,2-2H18z M17,17
	c-1.1,0-2-0.9-2-2V6c0-1.1,0.9-2,2-2h14c1.1,0,2,0.9,2,2v9c0,1.1-0.9,2-2,2H17z M44,42c0,1.1-0.9,2-2,2H30c-1.1,0-2-0.9-2-2v-9
	c0-1.1,0.9-2,2-2h12c1.1,0,2,0.9,2,2V42z"></path>
</svg>
